# xmcd CD database file
#
# Track frame offsets:
#	150
#	26315
#	57155
#	95908
#	150610
#	183017
#	188843
#	197502
#	210091
#	221621
#
# Disc length: 3189 seconds
#
# Revision: 0
# Processed by: cddbd v1.5.2PL0 Copyright (c) Steve Scherf et al.
# Submitted via: CDex 1.70beta2
#
DISCID=7b0c730a
DTITLE=Nancy Turetzky and Bertram Turetzky - Music For Flute(s) And Contrabass, I
DYEAR=2005
DGENRE=Jazz
TTITLE0=The Location Of Music
TTITLE1=Primal Balance
TTITLE2=Sonnets - Seven Studies In Color And Rhyme
TTITLE3=Rated X v.1
TTITLE4=Ciel Luminaire
TTITLE5=Travelogue For Flute And Contrabass 1
TTITLE6=Travelogue For Flute And Contrabass 2
TTITLE7=Travelogue For Flute And Contrabass 3
TTITLE8=Travelogue For Flute And Contrabass 4
TTITLE9=Travelogue For Flute And Contrabass 5
EXTD=YEAR: 2005
EXTT0=
EXTT1=
EXTT2=
EXTT3=
EXTT4=
EXTT5=
EXTT6=
EXTT7=
EXTT8=
EXTT9=
PLAYORDER=
